<svg xmlns="http://www.w3.org/2000/svg" viewBox="0 0 512 512"><defs><style>.cls-1{fill:#fff;}.cls-2{fill:#1d1d1b;}</style></defs><g id="Livello_2" data-name="Livello 2"><g id="Livello_1-2" data-name="Livello 1"><rect class="cls-1" width="512" height="512"/><path class="cls-2" d="M126.91,320.76h.41l22.8-136h56.21V327.28H174.77v-136h-.41l-22.81,136H102.68l-22.81-136h-.41v136H47.89V184.72H104.1Z"/><path class="cls-2" d="M267.53,298.57H327v28.71H236V184.72h31.57Z"/><path class="cls-2" d="M331.54,256c0-42.76,31.56-74.13,74.73-74.13,24,0,44.6,10.18,57.84,26.89l-23.62,18.73a44,44,0,0,0-34.22-16.09c-25.86,0-43.17,18.74-43.17,44.6s17.31,44.6,43.17,44.6a44,44,0,0,0,34.22-16.09l23.62,18.74c-13.24,16.7-33.8,26.88-57.84,26.88C363.1,330.13,331.54,298.76,331.54,256Z"/></g></g></svg>